<svg xmlns="http://www.w3.org/2000/svg" xmlns:xlink="http://www.w3.org/1999/xlink" viewBox="0 0 1200 630" width="1200" height="630">
  <rect width="1200" height="630" fill="#0F2352" />
  
  <!-- Base Colors Logo -->
  <image x="500" y="50" width="200" height="200" xlink:href="/basecolors_logo.png" />
  
  <!-- Grid of color squares -->
  <g id="colorGrid">
    <rect x="100" y="280" width="120" height="120" fill="#FF5733" />
    <rect x="230" y="280" width="120" height="120" fill="#33FF57" />
    <rect x="360" y="280" width="120" height="120" fill="#3357FF" />
    <rect x="490" y="280" width="120" height="120" fill="#FF33A8" />
    <rect x="620" y="280" width="120" height="120" fill="#33FFF0" />
    <rect x="750" y="280" width="120" height="120" fill="#FFD433" />
    <rect x="880" y="280" width="120" height="120" fill="#DD33FF" />
    <rect x="1010" y="280" width="120" height="120" fill="#33FFAA" />
    
    <rect x="100" y="410" width="120" height="120" fill="#9E33FF" />
    <rect x="230" y="410" width="120" height="120" fill="#FFA133" />
    <rect x="360" y="410" width="120" height="120" fill="#33A8FF" />
    <rect x="490" y="410" width="120" height="120" fill="#FF336E" />
    <rect x="620" y="410" width="120" height="120" fill="#B5FF33" />
    <rect x="750" y="410" width="120" height="120" fill="#33FFC4" />
    <rect x="880" y="410" width="120" height="120" fill="#FF33D4" />
    <rect x="1010" y="410" width="120" height="120" fill="#33E1FF" />
  </g>
  
  <!-- Text -->
  <text x="600" y="260" fill="white" font-family="Arial, sans-serif" font-size="48" text-anchor="middle" font-weight="bold">Base Colors PFP</text>
  <text x="600" y="560" fill="white" font-family="Arial, sans-serif" font-size="32" text-anchor="middle">Set any Base Color as your Farcaster profile picture</text>
</svg> 